<mxfile host="app.diagrams.net" agent="Mozilla/5.0 (Windows NT 10.0; Win64; x64) AppleWebKit/537.36 (KHTML, like Gecko) Chrome/131.0.0.0 Safari/537.36 OPR/116.0.0.0" version="26.0.16">
  <diagram name="Página-1" id="a39GHQ4Wd7Wok2RdBYFy">
    <mxGraphModel grid="1" page="1" gridSize="10" guides="1" tooltips="1" connect="1" arrows="1" fold="1" pageScale="1" pageWidth="827" pageHeight="1169" math="0" shadow="0">
      <root>
        <mxCell id="0" />
        <mxCell id="1" parent="0" />
        <mxCell id="5aWJq8jwoI4rW_0PhFlL-25" style="edgeStyle=orthogonalEdgeStyle;rounded=0;orthogonalLoop=1;jettySize=auto;html=1;exitX=0.5;exitY=0.5;exitDx=0;exitDy=0;exitPerimeter=0;entryX=1;entryY=0.5;entryDx=0;entryDy=0;fillColor=#f8cecc;strokeColor=#b85450;" edge="1" parent="1" source="5aWJq8jwoI4rW_0PhFlL-1" target="5aWJq8jwoI4rW_0PhFlL-10">
          <mxGeometry relative="1" as="geometry" />
        </mxCell>
        <mxCell id="5aWJq8jwoI4rW_0PhFlL-28" style="edgeStyle=orthogonalEdgeStyle;rounded=0;orthogonalLoop=1;jettySize=auto;html=1;exitX=0.5;exitY=0.5;exitDx=0;exitDy=0;exitPerimeter=0;entryX=1;entryY=0.5;entryDx=0;entryDy=0;fillColor=#f8cecc;strokeColor=#b85450;" edge="1" parent="1" source="5aWJq8jwoI4rW_0PhFlL-1" target="5aWJq8jwoI4rW_0PhFlL-20">
          <mxGeometry relative="1" as="geometry" />
        </mxCell>
        <mxCell id="5aWJq8jwoI4rW_0PhFlL-29" style="edgeStyle=orthogonalEdgeStyle;rounded=0;orthogonalLoop=1;jettySize=auto;html=1;exitX=0.5;exitY=0.5;exitDx=0;exitDy=0;exitPerimeter=0;entryX=1;entryY=0.5;entryDx=0;entryDy=0;fillColor=#f8cecc;strokeColor=#b85450;" edge="1" parent="1" source="5aWJq8jwoI4rW_0PhFlL-1" target="5aWJq8jwoI4rW_0PhFlL-19">
          <mxGeometry relative="1" as="geometry" />
        </mxCell>
        <mxCell id="5aWJq8jwoI4rW_0PhFlL-30" style="edgeStyle=orthogonalEdgeStyle;rounded=0;orthogonalLoop=1;jettySize=auto;html=1;exitX=0.5;exitY=0.5;exitDx=0;exitDy=0;exitPerimeter=0;entryX=1;entryY=0.5;entryDx=0;entryDy=0;fillColor=#f8cecc;strokeColor=#b85450;" edge="1" parent="1" source="5aWJq8jwoI4rW_0PhFlL-1" target="5aWJq8jwoI4rW_0PhFlL-18">
          <mxGeometry relative="1" as="geometry" />
        </mxCell>
        <mxCell id="mGxV5LVkWZAqq6Auj-xU-1" style="edgeStyle=orthogonalEdgeStyle;rounded=0;orthogonalLoop=1;jettySize=auto;html=1;exitX=0.5;exitY=0.5;exitDx=0;exitDy=0;exitPerimeter=0;entryX=1;entryY=0.5;entryDx=0;entryDy=0;fillColor=#f8cecc;strokeColor=#b85450;" edge="1" parent="1" source="5aWJq8jwoI4rW_0PhFlL-1" target="naCD8MThjEN1eYTu9lcl-2">
          <mxGeometry relative="1" as="geometry" />
        </mxCell>
        <mxCell id="mGxV5LVkWZAqq6Auj-xU-2" style="edgeStyle=orthogonalEdgeStyle;rounded=0;orthogonalLoop=1;jettySize=auto;html=1;exitX=0.5;exitY=0.5;exitDx=0;exitDy=0;exitPerimeter=0;entryX=1;entryY=0.5;entryDx=0;entryDy=0;fillColor=#f8cecc;strokeColor=#b85450;" edge="1" parent="1" source="5aWJq8jwoI4rW_0PhFlL-1" target="naCD8MThjEN1eYTu9lcl-1">
          <mxGeometry relative="1" as="geometry" />
        </mxCell>
        <mxCell id="m-YGeH6tfqv6NzSz80Ae-2" style="edgeStyle=orthogonalEdgeStyle;rounded=0;orthogonalLoop=1;jettySize=auto;html=1;exitX=0.5;exitY=0.5;exitDx=0;exitDy=0;exitPerimeter=0;entryX=1;entryY=0.5;entryDx=0;entryDy=0;fillColor=#f8cecc;strokeColor=#b85450;" edge="1" parent="1" source="5aWJq8jwoI4rW_0PhFlL-1" target="m-YGeH6tfqv6NzSz80Ae-1">
          <mxGeometry relative="1" as="geometry" />
        </mxCell>
        <mxCell id="m-YGeH6tfqv6NzSz80Ae-5" style="edgeStyle=orthogonalEdgeStyle;rounded=0;orthogonalLoop=1;jettySize=auto;html=1;exitX=0.5;exitY=0.5;exitDx=0;exitDy=0;exitPerimeter=0;entryX=1;entryY=0.5;entryDx=0;entryDy=0;fillColor=#f8cecc;strokeColor=#b85450;" edge="1" parent="1" source="5aWJq8jwoI4rW_0PhFlL-1" target="m-YGeH6tfqv6NzSz80Ae-3">
          <mxGeometry relative="1" as="geometry" />
        </mxCell>
        <mxCell id="m-YGeH6tfqv6NzSz80Ae-6" style="edgeStyle=orthogonalEdgeStyle;rounded=0;orthogonalLoop=1;jettySize=auto;html=1;exitX=0.5;exitY=0.5;exitDx=0;exitDy=0;exitPerimeter=0;entryX=1;entryY=0.5;entryDx=0;entryDy=0;fillColor=#f8cecc;strokeColor=#b85450;" edge="1" parent="1" source="5aWJq8jwoI4rW_0PhFlL-1" target="m-YGeH6tfqv6NzSz80Ae-4">
          <mxGeometry relative="1" as="geometry" />
        </mxCell>
        <mxCell id="5aWJq8jwoI4rW_0PhFlL-1" value="Actor" style="shape=umlActor;verticalLabelPosition=bottom;verticalAlign=top;html=1;outlineConnect=0;fillColor=#f5f5f5;strokeColor=#666666;fontColor=#333333;" vertex="1" parent="1">
          <mxGeometry x="676" y="360" width="30" height="60" as="geometry" />
        </mxCell>
        <mxCell id="5aWJq8jwoI4rW_0PhFlL-21" style="edgeStyle=orthogonalEdgeStyle;rounded=0;orthogonalLoop=1;jettySize=auto;html=1;exitX=0.5;exitY=0.5;exitDx=0;exitDy=0;exitPerimeter=0;entryX=0;entryY=0.5;entryDx=0;entryDy=0;fillColor=#f8cecc;strokeColor=#b85450;" edge="1" parent="1" source="5aWJq8jwoI4rW_0PhFlL-2" target="5aWJq8jwoI4rW_0PhFlL-9">
          <mxGeometry relative="1" as="geometry" />
        </mxCell>
        <mxCell id="5aWJq8jwoI4rW_0PhFlL-22" style="edgeStyle=orthogonalEdgeStyle;rounded=0;orthogonalLoop=1;jettySize=auto;html=1;exitX=0.5;exitY=0.5;exitDx=0;exitDy=0;exitPerimeter=0;entryX=0;entryY=0.5;entryDx=0;entryDy=0;fillColor=#f8cecc;strokeColor=#b85450;" edge="1" parent="1" source="5aWJq8jwoI4rW_0PhFlL-2" target="5aWJq8jwoI4rW_0PhFlL-17">
          <mxGeometry relative="1" as="geometry" />
        </mxCell>
        <mxCell id="5aWJq8jwoI4rW_0PhFlL-23" style="edgeStyle=orthogonalEdgeStyle;rounded=0;orthogonalLoop=1;jettySize=auto;html=1;exitX=0.5;exitY=0.5;exitDx=0;exitDy=0;exitPerimeter=0;entryX=0;entryY=0.5;entryDx=0;entryDy=0;fillColor=#f8cecc;strokeColor=#b85450;" edge="1" parent="1" source="5aWJq8jwoI4rW_0PhFlL-2" target="5aWJq8jwoI4rW_0PhFlL-15">
          <mxGeometry relative="1" as="geometry" />
        </mxCell>
        <mxCell id="5aWJq8jwoI4rW_0PhFlL-32" style="edgeStyle=orthogonalEdgeStyle;rounded=0;orthogonalLoop=1;jettySize=auto;html=1;exitX=0.5;exitY=0.5;exitDx=0;exitDy=0;exitPerimeter=0;entryX=0;entryY=0.5;entryDx=0;entryDy=0;fillColor=#f8cecc;strokeColor=#b85450;" edge="1" parent="1" source="5aWJq8jwoI4rW_0PhFlL-2" target="5aWJq8jwoI4rW_0PhFlL-14">
          <mxGeometry relative="1" as="geometry" />
        </mxCell>
        <mxCell id="m-YGeH6tfqv6NzSz80Ae-7" style="edgeStyle=orthogonalEdgeStyle;rounded=0;orthogonalLoop=1;jettySize=auto;html=1;exitX=0.5;exitY=0.5;exitDx=0;exitDy=0;exitPerimeter=0;entryX=0;entryY=0.5;entryDx=0;entryDy=0;fillColor=#f8cecc;strokeColor=#b85450;" edge="1" parent="1" source="5aWJq8jwoI4rW_0PhFlL-2" target="m-YGeH6tfqv6NzSz80Ae-3">
          <mxGeometry relative="1" as="geometry" />
        </mxCell>
        <mxCell id="m-YGeH6tfqv6NzSz80Ae-8" style="edgeStyle=orthogonalEdgeStyle;rounded=0;orthogonalLoop=1;jettySize=auto;html=1;exitX=0.5;exitY=0.5;exitDx=0;exitDy=0;exitPerimeter=0;entryX=0;entryY=0.5;entryDx=0;entryDy=0;fillColor=#f8cecc;strokeColor=#b85450;" edge="1" parent="1" source="5aWJq8jwoI4rW_0PhFlL-2" target="m-YGeH6tfqv6NzSz80Ae-4">
          <mxGeometry relative="1" as="geometry" />
        </mxCell>
        <mxCell id="5aWJq8jwoI4rW_0PhFlL-2" value="Actor" style="shape=umlActor;verticalLabelPosition=bottom;verticalAlign=top;html=1;outlineConnect=0;" vertex="1" parent="1">
          <mxGeometry x="111" y="375" width="30" height="60" as="geometry" />
        </mxCell>
        <mxCell id="5aWJq8jwoI4rW_0PhFlL-5" value="Usuario" style="text;html=1;align=center;verticalAlign=middle;resizable=0;points=[];autosize=1;fillColor=#f5f5f5;strokeColor=#666666;fontColor=#333333;" vertex="1" parent="1">
          <mxGeometry x="96" y="335" width="60" height="30" as="geometry" />
        </mxCell>
        <mxCell id="5aWJq8jwoI4rW_0PhFlL-6" value="Biblioteca" style="text;html=1;align=center;verticalAlign=middle;resizable=0;points=[];autosize=1;fillColor=#f5f5f5;strokeColor=#666666;fontColor=#333333;" vertex="1" parent="1">
          <mxGeometry x="651" y="310" width="80" height="30" as="geometry" />
        </mxCell>
        <mxCell id="5aWJq8jwoI4rW_0PhFlL-9" value="Reservar libros" style="ellipse;whiteSpace=wrap;html=1;fillColor=#f5f5f5;strokeColor=#666666;fontColor=#333333;" vertex="1" parent="1">
          <mxGeometry x="236" y="350" width="110" height="40" as="geometry" />
        </mxCell>
        <mxCell id="5aWJq8jwoI4rW_0PhFlL-10" value="Prestar libro" style="ellipse;whiteSpace=wrap;html=1;fillColor=#f5f5f5;strokeColor=#666666;fontColor=#333333;" vertex="1" parent="1">
          <mxGeometry x="426" y="260" width="110" height="40" as="geometry" />
        </mxCell>
        <mxCell id="5aWJq8jwoI4rW_0PhFlL-14" value="devolver libro" style="ellipse;whiteSpace=wrap;html=1;fillColor=#f5f5f5;strokeColor=#666666;fontColor=#333333;" vertex="1" parent="1">
          <mxGeometry x="236" y="464.5" width="110" height="40" as="geometry" />
        </mxCell>
        <mxCell id="5aWJq8jwoI4rW_0PhFlL-15" value="Verificar disponibilidad" style="ellipse;whiteSpace=wrap;html=1;fillColor=#f5f5f5;strokeColor=#666666;fontColor=#333333;" vertex="1" parent="1">
          <mxGeometry x="236" y="280" width="110" height="50" as="geometry" />
        </mxCell>
        <mxCell id="5aWJq8jwoI4rW_0PhFlL-17" value="Buscar libro" style="ellipse;whiteSpace=wrap;html=1;fillColor=#f5f5f5;strokeColor=#666666;fontColor=#333333;" vertex="1" parent="1">
          <mxGeometry x="236" y="400" width="110" height="50" as="geometry" />
        </mxCell>
        <mxCell id="5aWJq8jwoI4rW_0PhFlL-18" value="Consultar historial de prestamos" style="ellipse;whiteSpace=wrap;html=1;fillColor=#f5f5f5;strokeColor=#666666;fontColor=#333333;" vertex="1" parent="1">
          <mxGeometry x="413.5" y="325" width="135" height="50" as="geometry" />
        </mxCell>
        <mxCell id="5aWJq8jwoI4rW_0PhFlL-19" value="Añadir libro" style="ellipse;whiteSpace=wrap;html=1;fillColor=#f5f5f5;strokeColor=#666666;fontColor=#333333;" vertex="1" parent="1">
          <mxGeometry x="421" y="390" width="120" height="50" as="geometry" />
        </mxCell>
        <mxCell id="5aWJq8jwoI4rW_0PhFlL-20" value="Eliminar libro" style="ellipse;whiteSpace=wrap;html=1;fillColor=#f5f5f5;strokeColor=#666666;fontColor=#333333;" vertex="1" parent="1">
          <mxGeometry x="426" y="454.5" width="110" height="50" as="geometry" />
        </mxCell>
        <mxCell id="naCD8MThjEN1eYTu9lcl-1" value="Cancelar reservas" style="ellipse;whiteSpace=wrap;html=1;fillColor=#f5f5f5;strokeColor=#666666;fontColor=#333333;" vertex="1" parent="1">
          <mxGeometry x="420" y="585" width="116" height="45" as="geometry" />
        </mxCell>
        <mxCell id="naCD8MThjEN1eYTu9lcl-2" value="Agregar reservas" style="ellipse;whiteSpace=wrap;html=1;fillColor=#f5f5f5;strokeColor=#666666;fontColor=#333333;" vertex="1" parent="1">
          <mxGeometry x="421" y="520" width="119" height="50" as="geometry" />
        </mxCell>
        <mxCell id="m-YGeH6tfqv6NzSz80Ae-1" value="Verificar del estado del libro" style="ellipse;whiteSpace=wrap;html=1;fillColor=#f5f5f5;strokeColor=#666666;fontColor=#333333;" vertex="1" parent="1">
          <mxGeometry x="414" y="640" width="136" height="60" as="geometry" />
        </mxCell>
        <mxCell id="m-YGeH6tfqv6NzSz80Ae-3" value="Inicia cesión" style="ellipse;whiteSpace=wrap;html=1;fillColor=#f5f5f5;fontColor=#333333;strokeColor=#666666;" vertex="1" parent="1">
          <mxGeometry x="337" y="190" width="122" height="50" as="geometry" />
        </mxCell>
        <mxCell id="m-YGeH6tfqv6NzSz80Ae-4" value="Registrarse" style="ellipse;whiteSpace=wrap;html=1;fillColor=#f5f5f5;fontColor=#333333;strokeColor=#666666;" vertex="1" parent="1">
          <mxGeometry x="346" y="120" width="104" height="50" as="geometry" />
        </mxCell>
      </root>
    </mxGraphModel>
  </diagram>
</mxfile>
